<svg width="120" height="80" viewBox="0 0 120 80" fill="none" xmlns="http://www.w3.org/2000/svg">
<rect x="1" y="1" width="118" height="78" rx="7" fill="white"/>
<rect x="1" y="1" width="118" height="78" rx="7" stroke="#789ADE" stroke-width="2"/>
<g clip-path="url(#clip0_8_83)">
<path d="M68.2481 15C65.9023 15.1622 63.1606 16.6637 61.5629 18.619C60.1054 20.3927 58.9064 23.0272 59.3739 25.5874C61.9369 25.6672 64.5851 24.1299 66.1196 22.1417C67.5551 20.291 68.6413 17.673 68.2481 15Z" fill="#444B59"/>
<path d="M77.5183 29.7619C75.266 26.9377 72.1008 25.2987 69.1116 25.2987C65.1653 25.2987 63.4961 27.1879 60.7544 27.1879C57.9274 27.1879 55.7796 25.3042 52.3669 25.3042C49.0147 25.3042 45.4452 27.3529 43.182 30.8564C40.0002 35.7899 40.5447 45.0656 45.7009 52.9663C47.5462 55.7933 50.0102 58.9723 53.2331 58.9998C56.1014 59.0273 56.9099 57.16 60.7956 57.1408C64.6813 57.1188 65.4183 59.0245 68.2811 58.9943C71.5068 58.9695 74.1055 55.4468 75.9508 52.6198C77.2735 50.5931 77.7658 49.5728 78.7915 47.2848C71.3308 44.4441 70.1345 33.8347 77.5183 29.7619Z" fill="#444B59"/>
</g>
<defs>
<clipPath id="clip0_8_83">
<rect width="44" height="44" fill="white" transform="translate(38 15)"/>
</clipPath>
</defs>
</svg>
