<svg width="120" height="80" viewBox="0 0 120 80" fill="none" xmlns="http://www.w3.org/2000/svg">
<rect x="1" y="1" width="118" height="78" rx="7" fill="white"/>
<rect x="1" y="1" width="118" height="78" rx="7" stroke="#789ADE" stroke-width="2"/>
<path d="M80 39.121C80 28.0726 71.0484 19.121 60 19.121C48.9516 19.121 40 28.0726 40 39.121C40 49.1033 47.3137 57.3775 56.875 58.8791V44.9025H51.7944V39.121H56.875V34.7146C56.875 29.7025 59.8589 26.9339 64.429 26.9339C66.6177 26.9339 68.9064 27.3242 68.9064 27.3242V32.2436H66.3839C63.9 32.2436 63.125 33.7855 63.125 35.367V39.121H68.6718L67.7847 44.9025H63.125V58.8791C72.6863 57.3775 80 49.1033 80 39.121Z" fill="#8699DA"/>
</svg>
