<svg width="120" height="80" viewBox="0 0 120 80" fill="none" xmlns="http://www.w3.org/2000/svg">
<rect x="1" y="1" width="118" height="78" rx="7" fill="white"/>
<rect x="1" y="1" width="118" height="78" rx="7" stroke="#789ADE" stroke-width="2"/>
<g clip-path="url(#clip0_8_74)">
<path d="M49.4216 44.9639L48.0989 49.9018L43.2643 50.0041C41.8195 47.3243 41 44.2582 41 41C41 37.8493 41.7662 34.8782 43.1244 32.2621H43.1255L47.4296 33.0512L49.315 37.3294C48.9204 38.4799 48.7053 39.7149 48.7053 41C48.7055 42.3947 48.9581 43.731 49.4216 44.9639Z" fill="#FBBB00"/>
<path d="M78.6681 37.4505C78.8863 38.5999 79 39.7869 79 41C79 42.3602 78.857 43.6871 78.5846 44.967C77.6597 49.3224 75.2429 53.1255 71.8949 55.8169L71.8939 55.8158L66.4726 55.5392L65.7054 50.7495C67.9269 49.4467 69.663 47.4078 70.5775 44.967H60.4177V37.4505H70.7258H78.6681Z" fill="#518EF8"/>
<path d="M71.8937 55.8158L71.8948 55.8169C68.6387 58.434 64.5025 60 59.9999 60C52.7643 60 46.4734 55.9557 43.2643 50.0041L49.4215 44.9639C51.0261 49.2462 55.157 52.2946 59.9999 52.2946C62.0816 52.2946 64.0317 51.7319 65.7051 50.7495L71.8937 55.8158Z" fill="#28B446"/>
<path d="M72.1277 26.3742L65.9725 31.4133C64.2406 30.3308 62.1934 29.7054 60.0001 29.7054C55.0475 29.7054 50.8393 32.8936 49.3152 37.3294L43.1256 32.2621H43.1245C46.2867 26.1654 52.6569 22 60.0001 22C64.6102 22 68.8371 23.6422 72.1277 26.3742Z" fill="#F14336"/>
</g>
<defs>
<clipPath id="clip0_8_74">
<rect width="38" height="38" fill="white" transform="translate(41 22)"/>
</clipPath>
</defs>
</svg>
