<svg width="480" height="43" viewBox="0 0 480 43" fill="none" xmlns="http://www.w3.org/2000/svg">
<path d="M0 22H480" stroke="#C8D3F9" stroke-width="2"/>
<rect width="192" height="43" transform="translate(144)" fill="white"/>
<path d="M157.54 28.14C156.62 28.14 155.807 27.9333 155.1 27.52C154.407 27.1067 153.867 26.52 153.48 25.76C153.107 24.9867 152.92 24.0933 152.92 23.08C152.92 22.0667 153.107 21.18 153.48 20.42C153.867 19.6467 154.407 19.0533 155.1 18.64C155.807 18.2267 156.62 18.02 157.54 18.02C158.46 18.02 159.273 18.2267 159.98 18.64C160.687 19.0533 161.227 19.6467 161.6 20.42C161.987 21.18 162.18 22.0667 162.18 23.08C162.18 24.0933 161.987 24.9867 161.6 25.76C161.227 26.52 160.687 27.1067 159.98 27.52C159.273 27.9333 158.46 28.14 157.54 28.14ZM157.54 26.8C158.5 26.8 159.233 26.4867 159.74 25.86C160.26 25.22 160.52 24.2933 160.52 23.08C160.52 21.8933 160.26 20.98 159.74 20.34C159.22 19.6867 158.487 19.36 157.54 19.36C156.593 19.36 155.86 19.6867 155.34 20.34C154.82 20.98 154.56 21.8933 154.56 23.08C154.56 24.28 154.813 25.2 155.32 25.84C155.84 26.48 156.58 26.8 157.54 26.8ZM171.414 18.06C171.974 18.02 172.254 18.2467 172.254 18.74C172.254 18.9533 172.194 19.1267 172.074 19.26C171.954 19.38 171.747 19.4533 171.454 19.48L170.854 19.54C169.96 19.62 169.294 19.94 168.854 20.5C168.427 21.0467 168.214 21.6933 168.214 22.44V27.3C168.214 27.5667 168.14 27.7667 167.994 27.9C167.847 28.0333 167.654 28.1 167.414 28.1C167.174 28.1 166.974 28.0333 166.814 27.9C166.667 27.7533 166.594 27.5533 166.594 27.3V18.86C166.594 18.6067 166.674 18.4133 166.834 18.28C166.994 18.1333 167.187 18.06 167.414 18.06C167.627 18.06 167.807 18.1333 167.954 18.28C168.1 18.4133 168.174 18.6 168.174 18.84V19.96C168.454 19.3733 168.847 18.9267 169.354 18.62C169.874 18.3133 170.467 18.1333 171.134 18.08L171.414 18.06ZM186.821 28.14C185.914 28.14 185.107 27.9333 184.401 27.52C183.707 27.1067 183.167 26.52 182.781 25.76C182.407 25 182.221 24.12 182.221 23.12C182.221 22.12 182.414 21.2333 182.801 20.46C183.201 19.6867 183.754 19.0867 184.461 18.66C185.167 18.2333 185.981 18.02 186.901 18.02C187.407 18.02 187.907 18.0933 188.401 18.24C188.907 18.3733 189.347 18.5733 189.721 18.84C189.961 19 190.127 19.16 190.221 19.32C190.327 19.4667 190.381 19.6333 190.381 19.82C190.381 20.0067 190.327 20.16 190.221 20.28C190.127 20.4 190.001 20.46 189.841 20.46C189.747 20.46 189.647 20.4333 189.541 20.38C189.434 20.3267 189.341 20.2733 189.261 20.22C189.194 20.1667 189.147 20.1333 189.121 20.12C188.774 19.8933 188.441 19.7133 188.121 19.58C187.814 19.4467 187.434 19.38 186.981 19.38C186.007 19.38 185.247 19.7133 184.701 20.38C184.167 21.0333 183.901 21.9467 183.901 23.12C183.901 24.2933 184.167 25.2 184.701 25.84C185.247 26.48 186.007 26.8 186.981 26.8C187.434 26.8 187.821 26.7333 188.141 26.6C188.474 26.4667 188.807 26.2867 189.141 26.06C189.287 25.9667 189.427 25.8867 189.561 25.82C189.694 25.7533 189.807 25.72 189.901 25.72C190.047 25.72 190.167 25.78 190.261 25.9C190.367 26.02 190.421 26.1733 190.421 26.36C190.421 26.5333 190.374 26.6933 190.281 26.84C190.187 26.9733 190.014 27.1267 189.761 27.3C189.387 27.5533 188.934 27.76 188.401 27.92C187.881 28.0667 187.354 28.14 186.821 28.14ZM198.411 28.14C197.491 28.14 196.678 27.9333 195.971 27.52C195.278 27.1067 194.738 26.52 194.351 25.76C193.978 24.9867 193.791 24.0933 193.791 23.08C193.791 22.0667 193.978 21.18 194.351 20.42C194.738 19.6467 195.278 19.0533 195.971 18.64C196.678 18.2267 197.491 18.02 198.411 18.02C199.331 18.02 200.144 18.2267 200.851 18.64C201.558 19.0533 202.098 19.6467 202.471 20.42C202.858 21.18 203.051 22.0667 203.051 23.08C203.051 24.0933 202.858 24.9867 202.471 25.76C202.098 26.52 201.558 27.1067 200.851 27.52C200.144 27.9333 199.331 28.14 198.411 28.14ZM198.411 26.8C199.371 26.8 200.104 26.4867 200.611 25.86C201.131 25.22 201.391 24.2933 201.391 23.08C201.391 21.8933 201.131 20.98 200.611 20.34C200.091 19.6867 199.358 19.36 198.411 19.36C197.464 19.36 196.731 19.6867 196.211 20.34C195.691 20.98 195.431 21.8933 195.431 23.08C195.431 24.28 195.684 25.2 196.191 25.84C196.711 26.48 197.451 26.8 198.411 26.8ZM212.365 18.02C214.698 18.02 215.865 19.3067 215.865 21.88V27.3C215.865 27.5533 215.792 27.7533 215.645 27.9C215.512 28.0333 215.318 28.1 215.065 28.1C214.812 28.1 214.612 28.0333 214.465 27.9C214.318 27.7533 214.245 27.5533 214.245 27.3V21.98C214.245 21.0733 214.065 20.4133 213.705 20C213.358 19.5867 212.798 19.38 212.025 19.38C211.132 19.38 210.418 19.6533 209.885 20.2C209.352 20.7467 209.085 21.4867 209.085 22.42V27.3C209.085 27.5533 209.012 27.7533 208.865 27.9C208.732 28.0333 208.538 28.1 208.285 28.1C208.032 28.1 207.832 28.0333 207.685 27.9C207.538 27.7533 207.465 27.5533 207.465 27.3V18.86C207.465 18.62 207.538 18.4267 207.685 18.28C207.832 18.1333 208.032 18.06 208.285 18.06C208.525 18.06 208.712 18.1333 208.845 18.28C208.992 18.4267 209.065 18.6133 209.065 18.84V19.86C209.385 19.26 209.832 18.8067 210.405 18.5C210.978 18.18 211.632 18.02 212.365 18.02ZM225.332 26.82C225.799 26.86 226.032 27.0733 226.032 27.46C226.032 27.6867 225.945 27.86 225.772 27.98C225.612 28.0867 225.365 28.1267 225.032 28.1L224.492 28.06C223.425 27.98 222.639 27.66 222.132 27.1C221.625 26.54 221.372 25.6933 221.372 24.56V19.54H220.032C219.805 19.54 219.625 19.4867 219.492 19.38C219.372 19.26 219.312 19.1067 219.312 18.92C219.312 18.72 219.372 18.56 219.492 18.44C219.625 18.32 219.805 18.26 220.032 18.26H221.372V16C221.372 15.7467 221.445 15.5533 221.592 15.42C221.739 15.2733 221.939 15.2 222.192 15.2C222.432 15.2 222.625 15.2733 222.772 15.42C222.919 15.5533 222.992 15.7467 222.992 16V18.26H225.212C225.425 18.26 225.592 18.32 225.712 18.44C225.845 18.56 225.912 18.72 225.912 18.92C225.912 19.1067 225.845 19.26 225.712 19.38C225.592 19.4867 225.425 19.54 225.212 19.54H222.992V24.64C222.992 25.3733 223.139 25.9067 223.432 26.24C223.739 26.56 224.192 26.74 224.792 26.78L225.332 26.82ZM230.449 28.1C230.209 28.1 230.009 28.0333 229.849 27.9C229.702 27.7533 229.629 27.5533 229.629 27.3V18.86C229.629 18.6067 229.702 18.4133 229.849 18.28C230.009 18.1333 230.209 18.06 230.449 18.06C230.689 18.06 230.882 18.1333 231.029 18.28C231.176 18.4133 231.249 18.6067 231.249 18.86V27.3C231.249 27.5667 231.176 27.7667 231.029 27.9C230.882 28.0333 230.689 28.1 230.449 28.1ZM230.449 15.96C230.129 15.96 229.869 15.8667 229.669 15.68C229.469 15.4933 229.369 15.2467 229.369 14.94C229.369 14.6467 229.469 14.4067 229.669 14.22C229.869 14.0333 230.129 13.94 230.449 13.94C230.769 13.94 231.029 14.0333 231.229 14.22C231.429 14.4067 231.529 14.6467 231.529 14.94C231.529 15.2467 231.429 15.4933 231.229 15.68C231.029 15.8667 230.769 15.96 230.449 15.96ZM241.177 18.02C243.511 18.02 244.677 19.3067 244.677 21.88V27.3C244.677 27.5533 244.604 27.7533 244.457 27.9C244.324 28.0333 244.131 28.1 243.877 28.1C243.624 28.1 243.424 28.0333 243.277 27.9C243.131 27.7533 243.057 27.5533 243.057 27.3V21.98C243.057 21.0733 242.877 20.4133 242.517 20C242.171 19.5867 241.611 19.38 240.837 19.38C239.944 19.38 239.231 19.6533 238.697 20.2C238.164 20.7467 237.897 21.4867 237.897 22.42V27.3C237.897 27.5533 237.824 27.7533 237.677 27.9C237.544 28.0333 237.351 28.1 237.097 28.1C236.844 28.1 236.644 28.0333 236.497 27.9C236.351 27.7533 236.277 27.5533 236.277 27.3V18.86C236.277 18.62 236.351 18.4267 236.497 18.28C236.644 18.1333 236.844 18.06 237.097 18.06C237.337 18.06 237.524 18.1333 237.657 18.28C237.804 18.4267 237.877 18.6133 237.877 18.84V19.86C238.197 19.26 238.644 18.8067 239.217 18.5C239.791 18.18 240.444 18.02 241.177 18.02ZM257.045 18.06C257.298 18.06 257.491 18.1333 257.625 18.28C257.771 18.4267 257.845 18.62 257.845 18.86V27.32C257.845 27.5467 257.771 27.7333 257.625 27.88C257.491 28.0267 257.298 28.1 257.045 28.1C256.805 28.1 256.611 28.0333 256.465 27.9C256.331 27.7533 256.265 27.5667 256.265 27.34V26.34C255.958 26.9267 255.525 27.3733 254.965 27.68C254.418 27.9867 253.798 28.14 253.105 28.14C251.945 28.14 251.071 27.82 250.485 27.18C249.898 26.5267 249.605 25.5667 249.605 24.3V18.86C249.605 18.62 249.678 18.4267 249.825 18.28C249.971 18.1333 250.171 18.06 250.425 18.06C250.678 18.06 250.871 18.1333 251.005 18.28C251.151 18.4267 251.225 18.62 251.225 18.86V24.26C251.225 25.1267 251.398 25.7667 251.745 26.18C252.091 26.58 252.638 26.78 253.385 26.78C254.238 26.78 254.925 26.5067 255.445 25.96C255.965 25.4 256.225 24.6667 256.225 23.76V18.86C256.225 18.62 256.298 18.4267 256.445 18.28C256.591 18.1333 256.791 18.06 257.045 18.06ZM270.395 25.74C270.542 25.74 270.669 25.8 270.775 25.92C270.882 26.04 270.935 26.1933 270.935 26.38C270.935 26.7133 270.702 27.02 270.235 27.3C269.755 27.58 269.249 27.7933 268.715 27.94C268.182 28.0733 267.662 28.14 267.155 28.14C265.649 28.14 264.455 27.6933 263.575 26.8C262.709 25.9067 262.275 24.6733 262.275 23.1C262.275 22.1 262.469 21.22 262.855 20.46C263.242 19.6867 263.782 19.0867 264.475 18.66C265.182 18.2333 265.982 18.02 266.875 18.02C268.142 18.02 269.149 18.4333 269.895 19.26C270.642 20.0867 271.015 21.2067 271.015 22.62C271.015 22.8867 270.962 23.08 270.855 23.2C270.749 23.32 270.575 23.38 270.335 23.38H263.895C264.015 25.6733 265.102 26.82 267.155 26.82C267.675 26.82 268.122 26.7533 268.495 26.62C268.869 26.4733 269.269 26.28 269.695 26.04C270.042 25.84 270.275 25.74 270.395 25.74ZM266.895 19.28C266.042 19.28 265.355 19.5467 264.835 20.08C264.329 20.6133 264.029 21.3667 263.935 22.34H269.595C269.569 21.3533 269.322 20.6 268.855 20.08C268.389 19.5467 267.735 19.28 266.895 19.28ZM295.879 18.58C296.012 18.26 296.232 18.1 296.539 18.1C296.739 18.1 296.919 18.1667 297.079 18.3C297.239 18.4333 297.319 18.6 297.319 18.8C297.319 18.8933 297.299 18.9933 297.259 19.1L293.939 27.5C293.859 27.6733 293.739 27.8133 293.579 27.92C293.432 28.0133 293.265 28.06 293.079 28.06C292.905 28.06 292.739 28.0133 292.579 27.92C292.432 27.8133 292.319 27.6733 292.239 27.5L289.479 20.48L286.739 27.5C286.672 27.6733 286.559 27.8133 286.399 27.92C286.239 28.0133 286.065 28.06 285.879 28.06C285.705 28.06 285.539 28.0133 285.379 27.92C285.219 27.8133 285.099 27.6733 285.019 27.5L281.699 19.12C281.659 19.0133 281.639 18.92 281.639 18.84C281.639 18.6267 281.725 18.4467 281.899 18.3C282.085 18.1533 282.285 18.08 282.499 18.08C282.819 18.08 283.045 18.24 283.179 18.56L285.919 25.94L288.739 18.62C288.819 18.4467 288.925 18.3133 289.059 18.22C289.205 18.1267 289.359 18.08 289.519 18.08C289.692 18.08 289.845 18.1267 289.979 18.22C290.125 18.3133 290.232 18.4467 290.299 18.62L293.119 25.92L295.879 18.58ZM302.468 28.1C302.228 28.1 302.028 28.0333 301.868 27.9C301.722 27.7533 301.648 27.5533 301.648 27.3V18.86C301.648 18.6067 301.722 18.4133 301.868 18.28C302.028 18.1333 302.228 18.06 302.468 18.06C302.708 18.06 302.902 18.1333 303.048 18.28C303.195 18.4133 303.268 18.6067 303.268 18.86V27.3C303.268 27.5667 303.195 27.7667 303.048 27.9C302.902 28.0333 302.708 28.1 302.468 28.1ZM302.468 15.96C302.148 15.96 301.888 15.8667 301.688 15.68C301.488 15.4933 301.388 15.2467 301.388 14.94C301.388 14.6467 301.488 14.4067 301.688 14.22C301.888 14.0333 302.148 13.94 302.468 13.94C302.788 13.94 303.048 14.0333 303.248 14.22C303.448 14.4067 303.548 14.6467 303.548 14.94C303.548 15.2467 303.448 15.4933 303.248 15.68C303.048 15.8667 302.788 15.96 302.468 15.96ZM312.953 26.82C313.42 26.86 313.653 27.0733 313.653 27.46C313.653 27.6867 313.566 27.86 313.393 27.98C313.233 28.0867 312.986 28.1267 312.653 28.1L312.113 28.06C311.046 27.98 310.26 27.66 309.753 27.1C309.246 26.54 308.993 25.6933 308.993 24.56V19.54H307.653C307.426 19.54 307.246 19.4867 307.113 19.38C306.993 19.26 306.933 19.1067 306.933 18.92C306.933 18.72 306.993 18.56 307.113 18.44C307.246 18.32 307.426 18.26 307.653 18.26H308.993V16C308.993 15.7467 309.066 15.5533 309.213 15.42C309.36 15.2733 309.56 15.2 309.813 15.2C310.053 15.2 310.246 15.2733 310.393 15.42C310.54 15.5533 310.613 15.7467 310.613 16V18.26H312.833C313.046 18.26 313.213 18.32 313.333 18.44C313.466 18.56 313.533 18.72 313.533 18.92C313.533 19.1067 313.466 19.26 313.333 19.38C313.213 19.4867 313.046 19.54 312.833 19.54H310.613V24.64C310.613 25.3733 310.76 25.9067 311.053 26.24C311.36 26.56 311.813 26.74 312.413 26.78L312.953 26.82ZM322.17 18.02C323.317 18.02 324.183 18.3467 324.77 19C325.357 19.64 325.65 20.6 325.65 21.88V27.3C325.65 27.5533 325.577 27.7533 325.43 27.9C325.283 28.0333 325.09 28.1 324.85 28.1C324.597 28.1 324.397 28.0333 324.25 27.9C324.103 27.7533 324.03 27.5533 324.03 27.3V21.92C324.03 21.0533 323.85 20.4133 323.49 20C323.143 19.5867 322.583 19.38 321.81 19.38C320.917 19.38 320.203 19.6533 319.67 20.2C319.137 20.7467 318.87 21.4867 318.87 22.42V27.3C318.87 27.5533 318.797 27.7533 318.65 27.9C318.517 28.0333 318.323 28.1 318.07 28.1C317.817 28.1 317.617 28.0333 317.47 27.9C317.323 27.7533 317.25 27.5533 317.25 27.3V14.58C317.25 14.3533 317.323 14.1667 317.47 14.02C317.63 13.8733 317.83 13.8 318.07 13.8C318.323 13.8 318.517 13.8733 318.65 14.02C318.797 14.1533 318.87 14.34 318.87 14.58V19.82C319.19 19.2333 319.637 18.7867 320.21 18.48C320.783 18.1733 321.437 18.02 322.17 18.02Z" fill="#444B59"/>
</svg>
